# AST/ASF file generated using VICON BodyLanguage
# -----------------------------------------------
:version 1.10
:name VICON
:units
  mass 1.0
  length 0.45
  angle deg
:documentation
   .ast/.asf automatically generated from VICON data using
   VICON BodyBuilder and BodyLanguage model FoxedUp or BRILLIANT.MOD
:root
   order TX TY TZ RX RY RZ
   axis XYZ
   position 0 0 0  
   orientation 0 0 0 
:bonedata
  begin
     id 1 
     name lhipjoint
     direction 0.716248 -0.617586 0.324924 
     length 2.63557 
     axis 0 0 0  XYZ
  end
  begin
     id 2 
     name lfemur
     direction 0.34202 -0.939693 0  
     length 7.01235  
     axis 0 0 20  XYZ
    dof rx ry rz
    limits (-160.0 20.0)
           (-70.0 70.0)
           (-60.0 70.0)
  end
  begin
     id 3 
     name ltibia
     direction 0.34202 -0.939693 0   
     length 8.14348   
     axis 0 0 20   XYZ
    dof rx
    limits (-10.0 170.0)
  end
  begin
     id 4 
     name lfoot
     direction 0.0982064 -0.26982 0.95789   
     length 1.99077   
     axis -90 7.62852e-016 20   XYZ
    dof rx rz
    limits (-45.0 90.0)
           (-70.0 20.0)
  end
  begin
     id 5 
     name ltoes
     direction 1.53511e-011 -4.21891e-011 1   
     length 0.99735   
     axis -90 7.62852e-016 20   XYZ
    dof rx
    limits (-90.0 20.0)
  end
  begin
     id 6 
     name rhipjoint
     direction -0.687828 -0.642391 0.337975   
     length 2.5338  
     axis 0 0 0  XYZ 
  end
  begin
     id 7 
     name rfemur
     direction -0.34202 -0.939693 0   
     length 6.90199   
     axis 0 0 -20   XYZ
    dof rx ry rz
    limits (-160.0 20.0)
           (-70.0 70.0)
           (-70.0 60.0)
  end
  begin
     id 8 
     name rtibia
     direction -0.34202 -0.939693 0   
     length 8.07725   
     axis 0 0 -20   XYZ
    dof rx
    limits (-10.0 170.0)
 end
 begin
     id 9 
     name rfoot
     direction -0.0912384 -0.250675 0.963762   
     length 2.11621  
     axis -90 -7.62852e-016 -20   XYZ
    dof rx rz
    limits (-45.0 90.0)
           (-20.0 70.0)
  end
  begin
     id 10 
     name rtoes
     direction -1.5359e-011 -4.21894e-011 1   
     length 1.06031   
     axis -90 -7.62852e-016 -20   XYZ
    dof rx
    limits (-90.0 20.0)
  end
  begin
     id 11 
     name lowerback
     direction -0.0403572 0.987953 -0.149396   
     length 2.05637   
     axis 0 0 0   XYZ
    dof rx ry rz
    limits (-20.0 45.0)
           (-30.0 30.0)
           (-30.0 30.0)
  end
  begin
     id 12 
     name upperback
     direction -0.00512151 0.997598 0.0690792   
     length 2.01086   
     axis 0 0 0   XYZ
    dof rx ry rz
    limits (-20.0 45.0)
           (-30.0 30.0)
           (-30.0 30.0)
  end
  begin
     id 13 
     name thorax
     direction 0.0136133 0.989392 0.14463   
     length 2.09035   
     axis 0 0 0   XYZ
    dof rx ry rz
    limits (-20.0 45.0)
           (-30.0 30.0)
           (-30.0 30.0)
  end
  begin
     id 14 
     name lowerneck
     direction 0.0250714 0.992811 0.11704   
     length 1.70806   
     axis 0 0 0   XYZ
    dof rx ry rz
    limits (-20.0 45.0)
           (-30.0 30.0)
           (-30.0 30.0)
  end
  begin
     id 15 
     name upperneck
     direction -0.0519205 0.998394 -0.0226787   
     length 1.6689   
     axis 0 0 0   XYZ
    dof rx ry rz
    limits (-20.0 45.0)
           (-30.0 30.0)
           (-30.0 30.0)
  end
  begin
     id 16
     name head
     direction -0.0201693 0.999547 -0.0223192  
     length 1.83412  
     axis 0 0 0   XYZ
    dof rx ry rz
    limits (-20.0 45.0)
           (-30.0 30.0)
           (-30.0 30.0)
  end
  begin
     id 17 
     name lclavicle
     direction 0.89585 0.444077 -0.0157448  
     length 3.39587  
     axis 0 0 0   XYZ
    dof ry rz
    limits (-20.0 10.0)
           (0.0 20.0)
  end
  begin
     id 18 
     name lhumerus
     direction 1 -4.48956e-011 1.99132e-028   
     length 5.79199   
     axis 180 -30 -90   XYZ
    dof rx ry rz
    limits (-60.0 90.0)
           (-90.0 90.0)
           (-90.0 90.0)
  end
  begin
     id 19
     name lradius
     direction 1 -4.48974e-011 8.72912e-028   
     length 3.49908   
     axis 180 -30 -90   XYZ
    dof rx
    limits (-10.0 170.0)
  end
  begin
     id 20
     name lwrist
     direction 1 -4.48994e-011 4.76442e-027   
     length 1.74954   
     axis -3.27502e-015 90 90   XYZ
    dof ry
    limits (-180.0 0.0)
 end
  begin
     id 21 
     name lhand
     direction 1 -4.48945e-011 9.531e-027   
     length 0.593861   
     axis -6.08098e-015 90 90   XYZ
    dof rx rz
    limits (-90.0 90.0)
           (-45.0 45.0)
  end
  begin
     id 22 
     name lfingers
     direction 1 -4.48945e-011 1.9062e-026   
     length 0.478786   
     axis -1.21619e-014 90 90   XYZ
    dof rx
    limits (0.0 90.0)
  end
  begin
     id 23
     name lthumb
     direction 0.707107 -6.34904e-011 0.707107   
     length 0.687444   
     axis -90 45 -9.86923e-015   XYZ
    dof rx rz
    limits (-45.0 45.0)
           (-45.0 45.0)
  end
  begin
     id 24 
     name rclavicle
     direction -0.940466 0.338394 0.0318182   
     length 3.51226  
     axis 0 0 0   XYZ 
    dof ry rz
    limits (-10.0 20.0)
           (-20.0 0.0)
  end
  begin
     id 25 
     name rhumerus
     direction -1 -4.48976e-011 2.0905e-027  
     length 5.73799   
     axis 180 30 90   XYZ
    dof rx ry rz
    limits (-90.0 60.0)
           (-90.0 90.0)
           (-90.0 90.0)
  end
  begin
     id 26 
     name rradius
     direction -1 -4.48968e-011 -9.39692e-029   
     length 3.57916   
     axis 180 30 90   XYZ
    dof rx
    limits (-10.0 170.0)
  end
  begin
     id 27 
     name rwrist
     direction -1 -4.48959e-011 4.7652e-027   
     length 1.78958   
     axis -3.27502e-015 -90 -90   XYZ
    dof ry
    limits (-180.0 0.0)
  end
  begin
     id 28
     name rhand
     direction -1 -4.49042e-011 9.5267e-027   
     length 0.615577   
     axis -6.08098e-015 -90 -90   XYZ
    dof rx rz
    limits (-90.0 90.0)
           (-45.0 45.0)
  end
  begin
     id 29
     name rfingers
     direction -1 -4.48935e-011 1.90629e-026   
     length 0.496294   
     axis -1.21619e-014 -90 -90   XYZ
    dof rx
    limits (0.0 90.0)
  end
  begin
     id 30
     name rthumb
     direction -0.707107 -6.34977e-011 0.707107   
     length 0.712582   
     axis -90 -45 9.86923e-015   XYZ
    dof rx rz
    limits (-45.0 45.0)
           (-45.0 45.0)
  end
:hierarchy
  begin
    root lhipjoint rhipjoint lowerback
    lhipjoint lfemur
    lfemur ltibia
    ltibia lfoot
    lfoot ltoes
    rhipjoint rfemur
    rfemur rtibia
    rtibia rfoot
    rfoot rtoes
    lowerback upperback
    upperback thorax
    thorax lowerneck lclavicle rclavicle
    lowerneck upperneck
    upperneck head
    lclavicle lhumerus
    lhumerus lradius
    lradius lwrist
    lwrist lhand lthumb
    lhand lfingers
    rclavicle rhumerus
    rhumerus rradius
    rradius rwrist
    rwrist rhand rthumb
    rhand rfingers
  end

#!OML:ASF H:\Terrain\Patient Classification 1\PaulMetrics\March17Take5\PaulMetrics.ASF
:FULLY-SPECIFIED
:DEGREES
754
root 7.42842 17.0903 -14.0801 10.2897 176.551 2.3606
lowerback -0.706266 1.71241 -2.98109
upperback -3.29725 2.36452 -1.60502
thorax -3.04389 1.29974 -0.0329342
lowerneck -3.6491 8.51885 7.59758
upperneck 10.4988 11.5496 -8.75556
head 4.69652 5.42958 -3.25548
rclavicle -5.96354e-015 2.46493e-014
rhumerus -41.4768 19.7892 -92.4533
rradius 62.3745
rwrist -9.11316
rhand -14.8682 -33.5943
rfingers 7.12502
rthumb 11.2919 -63.2703
lclavicle -5.96354e-015 2.46493e-014
lhumerus -46.7098 -3.15628 75.7489
lradius 27.8425
lwrist 12.5892
lhand -6.07828 -18.0504
lfingers 7.12502
lthumb 19.7571 10.9655
rfemur -1.72754 12.3076 29.3467
rtibia 17.1027
rfoot -17.9492 -3.77615
rtoes 12.1745
lfemur -42.5081 -9.93388 -12.9644
ltibia 26.7401
lfoot -5.94295 16.4445
ltoes -11.8627
755
root 7.42104 17.0954 -14.2283 10.3252 176.486 2.27153
lowerback -0.812833 1.70516 -3.07083
upperback -3.37007 2.36499 -1.71364
thorax -3.05834 1.3062 -0.0927385
lowerneck -3.83658 8.51841 7.95076
upperneck 10.7691 11.5594 -9.12187
head 4.85403 5.41364 -3.41006
rclavicle -3.67752e-015 4.45278e-014
rhumerus -41.6546 19.6433 -92.6746
rradius 62.6592
rwrist -9.23545
rhand -13.5581 -33.6135
rfingers 7.12502
rthumb 12.5552 -63.2162
lclavicle -3.67752e-015 4.45278e-014
lhumerus -46.5807 -3.01908 75.4234
lradius 27.3258
lwrist 12.2024
lhand -5.92758 -18.2423
lfingers 7.12502
lthumb 19.902 10.7586
rfemur -0.925351 11.8366 29.2248
rtibia 16.4468
rfoot -17.7322 -3.47073
rtoes 11.8808
lfemur -42.5625 -9.47335 -13.6011
ltibia 26.4772
lfoot -6.39112 17.6135
ltoes -10.9884
756
root 7.41624 17.0832 -14.3707 10.3139 176.329 2.59572
lowerback -0.752007 1.80085 -2.82618
upperback -3.44188 2.49185 -1.74165
thorax -3.15755 1.36445 -0.264784
lowerneck -3.74492 8.46301 8.29356
upperneck 10.6777 11.4886 -9.38884
head 4.84 5.38316 -3.55581
rclavicle -5.17337e-014 3.49861e-014
rhumerus -41.759 19.2614 -92.8337
rradius 62.9241
rwrist -8.94224
rhand -13.774 -33.1258
rfingers 7.12502
rthumb 12.347 -62.7413
lclavicle -5.17337e-014 3.49861e-014
lhumerus -46.4645 -2.96984 75.0924
lradius 27.0881
lwrist 11.8501
lhand -5.67088 -17.7985
lfingers 7.12502
lthumb 20.1487 11.1766
rfemur -0.108167 11.6287 29.5704
rtibia 15.909
rfoot -17.5465 -3.20994
rtoes 10.9213
lfemur -42.5268 -8.44811 -14.0507
ltibia 26.2099
lfoot -6.65505 18.4872
ltoes -9.67676
757
root 7.41165 17.0677 -14.5106 10.3076 176.157 2.62731
lowerback -0.670103 1.90007 -2.91612
upperback -3.49371 2.622 -1.83964
thorax -3.25945 1.43399 -0.323499
lowerneck -3.49325 8.491 8.44936
upperneck 10.2985 11.5255 -9.45988
head 4.69844 5.42315 -3.6134
rclavicle 9.14409e-015 -2.70347e-014
rhumerus -41.999 18.8294 -92.8964
rradius 63.3449
rwrist -8.45702
rhand -15.7627 -34.2199
rfingers 7.12502
rthumb 10.4291 -63.9412
lclavicle 9.14409e-015 -2.70347e-014
lhumerus -46.3442 -3.06418 74.9264
lradius 27.1369
lwrist 11.6902
lhand -5.75096 -17.6504
lfingers 7.12502
lthumb 20.0717 11.3328
rfemur 0.668581 11.5496 29.5678
rtibia 15.4607
rfoot -17.402 -2.77714
rtoes 12.0809
lfemur -42.4907 -7.12431 -14.9881
ltibia 26.0213
lfoot -6.5325 18.8499
ltoes -9.47471
758
root 7.40158 17.0553 -14.6539 10.4152 176.168 2.35087
lowerback -0.824959 1.84346 -3.21745
upperback -3.50238 2.55734 -1.93285
thorax -3.18955 1.41259 -0.244342
lowerneck -3.15489 8.63111 8.49605
upperneck 9.84144 11.7364 -9.71682
head 4.54005 5.53551 -3.70258
rclavicle 6.95746e-016 1.03368e-014
rhumerus -42.2077 18.7923 -93.0036
rradius 63.6022
rwrist -8.44483
rhand -18.1955 -37.3412
rfingers 7.12502
rthumb 8.08166 -67.1667
lclavicle 6.95746e-016 1.03368e-014
lhumerus -46.3288 -3.12663 74.9797
lradius 27.3392
lwrist 11.8562
lhand -5.96398 -17.5593
lfingers 7.12502
lthumb 19.867 11.4453
rfemur 1.40427 11.2546 29.2216
rtibia 14.8648
rfoot -17.2066 -2.54325
rtoes 11.898
lfemur -42.6956 -5.92023 -16.3163
ltibia 26.0931
lfoot -6.17333 18.9247
ltoes -10.7335
759
root 7.39204 17.0393 -14.8007 10.5729 176.212 2.58547
lowerback -0.999526 1.79131 -3.07258
upperback -3.55831 2.49845 -1.81954
thorax -3.14621 1.38122 -0.201838
lowerneck -2.70099 8.73132 8.56942
upperneck 9.44497 11.903 -10.0989
head 4.38685 5.62008 -3.84302
rclavicle 6.26172e-015 -2.22639e-014
rhumerus -42.4133 18.798 -93.1164
rradius 63.7976
rwrist -8.4914
rhand -22.1636 -34.8822
rfingers 7.12502
rthumb 4.25078 -64.8196
lclavicle 6.26172e-015 -2.22639e-014
lhumerus -46.3393 -2.98505 75.0123
lradius 27.3776
lwrist 11.8149
lhand -5.98255 -17.1937
lfingers 7.12502
lthumb 19.8491 11.8127
rfemur 2.20654 10.9052 29.432
rtibia 14.0157
rfoot -16.8693 -2.42107
rtoes 10.6621
lfemur -42.9666 -4.74406 -17.0847
ltibia 26.4183
lfoot -6.32157 18.8462
ltoes -10.9101
